name GIL03_xslow1EmgEnv.mot
datacolumns 51
datarows 10
range 0.93796295 0.94629627
endheader
                time	   rect_fem_l_emgRec	   rect_fem_l_emgEnv	   rect_fem_l_emgAve	   rect_fem_l_emgSDp	   rect_fem_l_emgSDm	   rect_fem_r_emgRec	   rect_fem_r_emgEnv	   rect_fem_r_emgAve	   rect_fem_r_emgSDp	   rect_fem_r_emgSDm	   med_hams_l_emgRec	   med_hams_l_emgEnv	   med_hams_l_emgAve	   med_hams_l_emgSDp	   med_hams_l_emgSDm	   med_hams_r_emgRec	   med_hams_r_emgEnv	   med_hams_r_emgAve	   med_hams_r_emgSDp	   med_hams_r_emgSDm	   lat_hams_l_emgRec	   lat_hams_l_emgEnv	   lat_hams_l_emgAve	   lat_hams_l_emgSDp	   lat_hams_l_emgSDm	   lat_hams_r_emgRec	   lat_hams_r_emgEnv	   lat_hams_r_emgAve	   lat_hams_r_emgSDp	   lat_hams_r_emgSDm	    tib_ant_l_emgRec	    tib_ant_l_emgEnv	    tib_ant_l_emgAve	    tib_ant_l_emgSDp	    tib_ant_l_emgSDm	    tib_ant_r_emgRec	    tib_ant_r_emgEnv	    tib_ant_r_emgAve	    tib_ant_r_emgSDp	    tib_ant_r_emgSDm	    gas_sol_l_emgRec	    gas_sol_l_emgEnv	    gas_sol_l_emgAve	    gas_sol_l_emgSDp	    gas_sol_l_emgSDm	    gas_sol_r_emgRec	    gas_sol_r_emgEnv	    gas_sol_r_emgAve	    gas_sol_r_emgSDp	    gas_sol_r_emgSDm	
          0.93796295	          0.01630862	          0.02775736	          0.05245945	          0.07236163	          0.03255728	          0.01066488	          0.25591622	          0.49825636	          0.84340516	          0.15310755	          0.01270630	          0.26720352	          0.13139266	          0.27748761	         -0.01470229	          0.16473185	          0.67607625	          0.53080255	          0.76238151	          0.29922359	          0.03480430	          0.06747707	          0.12650448	          0.16041278	          0.09259618	          0.01323483	          0.13979937	          0.09859516	          0.14915123	          0.04803910	          0.11596543	          0.31524879	          0.16734944	          0.39915635	         -0.06445746	          0.09758881	          0.20301416	          0.35435513	          0.45631240	          0.25239786	          0.02598765	          0.09997037	          0.07096602	          0.08107302	          0.06085902	          0.01531233	          0.06660020	          0.03081175	          0.03143149	          0.03019201	
          0.93888885	          0.00685893	          0.02766992	          0.05183105	          0.07152062	          0.03214148	          0.02800612	          0.25462362	          0.49834251	          0.84461772	          0.15206730	          0.01721414	          0.26373327	          0.13056912	          0.27561861	         -0.01448038	          0.21161083	          0.68446013	          0.53136742	          0.76496096	          0.29777388	          0.03066640	          0.06695374	          0.12523675	          0.15964866	          0.09082484	          0.00955184	          0.13828727	          0.09838688	          0.14869855	          0.04807521	          0.00759127	          0.32256856	          0.16928482	          0.40362282	         -0.06505318	          0.07543381	          0.19932210	          0.35266832	          0.45426553	          0.25107110	          0.04145739	          0.09888328	          0.07123822	          0.08082158	          0.06165486	          0.01482450	          0.06780499	          0.03149432	          0.03257910	          0.03040954	
          0.93981481	          0.00157846	          0.02759859	          0.05120315	          0.07068024	          0.03172605	          0.06112418	          0.25331496	          0.49840909	          0.84579998	          0.15101820	          0.02679846	          0.26026948	          0.12974076	          0.27373825	         -0.01425673	          0.16567762	          0.69276646	          0.53191787	          0.76753230	          0.29630344	          0.01635061	          0.06647436	          0.12397527	          0.15888855	          0.08906199	          0.00704070	          0.13673388	          0.09817801	          0.14824421	          0.04811181	          0.15058823	          0.32991060	          0.17122616	          0.40807836	         -0.06562604	          0.08616421	          0.19570734	          0.35096845	          0.45220150	          0.24973540	          0.01715765	          0.09775678	          0.07151068	          0.08057742	          0.06244394	          0.03004317	          0.06902942	          0.03218843	          0.03374760	          0.03062926	
          0.94074070	          0.00313816	          0.02754178	          0.05057597	          0.06984081	          0.03131114	          0.06752629	          0.25198857	          0.49845591	          0.84695175	          0.14996007	          0.01629599	          0.25681577	          0.12890804	          0.27184737	         -0.01403129	          0.01688876	          0.70098345	          0.53245413	          0.77009539	          0.29481287	          0.00546505	          0.06603592	          0.12272052	          0.15813265	          0.08730838	          0.03116660	          0.13514128	          0.09796856	          0.14778826	          0.04814887	          0.23132448	          0.33727006	          0.17317295	          0.41252139	         -0.06617549	          0.10796399	          0.19217371	          0.34925592	          0.45012071	          0.24839113	          0.02349701	          0.09659302	          0.07178307	          0.08034054	          0.06322560	          0.02542786	          0.07027081	          0.03289398	          0.03493686	          0.03085110	
          0.94166666	          0.00433375	          0.02749799	          0.04994963	          0.06900246	          0.03089680	          0.05442196	          0.25064282	          0.49848303	          0.84807301	          0.14889306	          0.00380128	          0.25337564	          0.12807114	          0.26994634	         -0.01380405	          0.12596207	          0.70909925	          0.53297609	          0.77265026	          0.29330193	          0.00630500	          0.06563548	          0.12147269	          0.15738102	          0.08556437	          0.04004236	          0.13351169	          0.09775854	          0.14733069	          0.04818638	          0.14104170	          0.34464205	          0.17512524	          0.41695172	         -0.06670123	          0.08712293	          0.18872487	          0.34753066	          0.44802315	          0.24703818	          0.04670789	          0.09539423	          0.07205519	          0.08011095	          0.06399943	          0.01890496	          0.07152638	          0.03361100	          0.03614700	          0.03107499	
          0.94259256	          0.00042752	          0.02746575	          0.04932435	          0.06816553	          0.03048317	          0.01272782	          0.24927612	          0.49849048	          0.84916371	          0.14781725	          0.01122776	          0.24995238	          0.12723051	          0.26803604	         -0.01357502	          0.09082950	          0.71710205	          0.53348351	          0.77519618	          0.29177083	          0.00836421	          0.06527018	          0.12023233	          0.15663394	          0.08383072	          0.00581436	          0.13184745	          0.09754800	          0.14687165	          0.04822435	          0.05161705	          0.35202154	          0.17708245	          0.42136773	         -0.06720284	          0.06285450	          0.18536427	          0.34579313	          0.44590928	          0.24567697	          0.05835057	          0.09416271	          0.07232673	          0.07988865	          0.06476480	          0.00812144	          0.07279328	          0.03433937	          0.03737791	          0.03130083	
          0.94351852	          0.00840024	          0.02744364	          0.04870022	          0.06733014	          0.03007030	          0.08085056	          0.24788695	          0.49847838	          0.85022402	          0.14673275	          0.01253678	          0.24654910	          0.12638630	          0.26611681	         -0.01334421	          0.01885629	          0.72498007	          0.53397673	          0.77773373	          0.29021974	          0.00782934	          0.06493724	          0.11899962	          0.15589144	          0.08210779	          0.00681888	          0.13015107	          0.09733693	          0.14641109	          0.04826277	          0.11922983	          0.35940344	          0.17904453	          0.42576905	         -0.06767999	          0.06843334	          0.18209514	          0.34404317	          0.44377901	          0.24430732	          0.05710718	          0.09290081	          0.07259745	          0.07967361	          0.06552129	          0.00257876	          0.07406860	          0.03507914	          0.03862970	          0.03152858	
          0.94444442	          0.02508966	          0.02743033	          0.04807748	          0.06649663	          0.02965834	          0.17814997	          0.24647386	          0.49844667	          0.85125357	          0.14563978	          0.00368419	          0.24316873	          0.12553898	          0.26418945	         -0.01311150	          0.03058520	          0.73272162	          0.53445560	          0.78026220	          0.28864899	          0.01118876	          0.06463399	          0.11777501	          0.15515376	          0.08039626	          0.04954835	          0.12842517	          0.09712539	          0.14594911	          0.04830166	          0.05526045	          0.36678257	          0.18101102	          0.43015428	         -0.06813224	          0.07954411	          0.17892048	          0.34228116	          0.44163277	          0.24292956	          0.04402833	          0.09161096	          0.07286708	          0.07946587	          0.06626829	          0.00584301	          0.07534936	          0.03583019	          0.03990224	          0.03175813	
          0.94537038	          0.03815297	          0.02742452	          0.04745621	          0.06566509	          0.02924732	          0.22852345	          0.24503549	          0.49839538	          0.85225269	          0.14453807	          0.01441497	          0.23981398	          0.12468867	          0.26225436	         -0.01287702	          0.05551123	          0.74031517	          0.53492010	          0.78278184	          0.28705835	          0.00243473	          0.06435781	          0.11655872	          0.15442096	          0.07869649	          0.07627015	          0.12667247	          0.09691335	          0.14548574	          0.04834096	          0.08771437	          0.37415363	          0.18298191	          0.43452320	         -0.06855938	          0.07350039	          0.17584307	          0.34050709	          0.43947056	          0.24154362	          0.03312295	          0.09029565	          0.07313538	          0.07926536	          0.06700541	          0.00098011	          0.07663255	          0.03659255	          0.04119567	          0.03198943	
          0.94629627	          0.04115373	          0.02742500	          0.04683662	          0.06483586	          0.02883738	          0.22428897	          0.24357061	          0.49832457	          0.85322115	          0.14342800	          0.02712783	          0.23648737	          0.12383585	          0.26031236	         -0.01264065	          0.06751243	          0.74774933	          0.53537023	          0.78529207	          0.28544839	          0.00880200	          0.06410620	          0.11535126	          0.15369330	          0.07700922	          0.03834689	          0.12489584	          0.09670092	          0.14502110	          0.04838075	          0.14050489	          0.38151121	          0.18495665	          0.43887414	         -0.06896083	          0.02319076	          0.17286540	          0.33872131	          0.43729281	          0.24014980	          0.02885290	          0.08895739	          0.07340210	          0.07907213	          0.06773207	          0.00303652	          0.07791509	          0.03736610	          0.04250982	          0.03222239	
